<svg xmlns="http://www.w3.org/2000/svg" viewBox="60 110 392 290" role="img" aria-label="Pratoria">
  <!-- Marca PROVISÓRIA: prato do protótipo, redesenhado com a borda marrom da "louça da casa". -->
  <ellipse cx="256" cy="384" rx="118" ry="12" fill="#D8C8AC"/>
  <circle cx="176" cy="206" r="50" fill="#56713A"/>
  <circle cx="152" cy="176" r="36" fill="#7FA24E"/>
  <circle cx="190" cy="168" r="24" fill="#6B8C44"/>
  <ellipse cx="228" cy="226" rx="52" ry="33" fill="#7A4A2A"/>
  <circle cx="296" cy="198" r="47" fill="#B8432E"/>
  <circle cx="310" cy="186" r="22" fill="#D0654A"/>
  <ellipse cx="352" cy="226" rx="60" ry="30" fill="#D6A94E"/>
  <path d="M86 262 H426 L370 364 Q366 372 356 372 H156 Q146 372 142 364 Z" fill="#FAF6EE"/>
  <ellipse cx="256" cy="262" rx="171" ry="24" fill="#F2ECE0" stroke="#9A6B45" stroke-width="7"/>
  <g fill="#B08A66" opacity=".55">
    <circle cx="170" cy="300" r="2.6"/><circle cx="226" cy="330" r="2.2"/><circle cx="300" cy="306" r="2.6"/>
    <circle cx="340" cy="328" r="2"/><circle cx="262" cy="352" r="2.2"/><circle cx="196" cy="346" r="2"/>
  </g>
</svg>
